HIERARCHY
ROOT hip
{
	OFFSET 0.000000 0.000000 0.000000 
	CHANNELS 6 Xposition Yposition Zposition Xrotation Zrotation Yrotation
	JOINT abdomen
	{
		OFFSET 0.000000 3.402643 0.000000 
		CHANNELS 3 Xrotation Zrotation Yrotation
		JOINT chest
		{
			OFFSET 0.000000 8.438565 -0.680529 
			CHANNELS 3 Xrotation Zrotation Yrotation
			JOINT neck
			{
				OFFSET 0.000000 10.207942 -0.272212 
				CHANNELS 3 Xrotation Zrotation Yrotation
				JOINT head
				{
					OFFSET 0.000000 3.130431 0.000000 
					CHANNELS 3 Xrotation Zrotation Yrotation
					End Site
					{
						OFFSET 0.000000 3.130435 0.000000 
					}
				}
			}
			JOINT lCollar
			{
				OFFSET 3.470700 6.669187 -0.816635 
				CHANNELS 3 Yrotation Zrotation Xrotation
				JOINT lShldr
				{
					OFFSET 3.198488 0.000000 0.000000 
					CHANNELS 3 Zrotation Yrotation Xrotation
					JOINT lForeArm
					{
						OFFSET 10.139888 0.000000 0.000000 
						CHANNELS 3 Yrotation Zrotation Xrotation
						JOINT lHand
						{
							OFFSET 8.370511 0.000000 0.000000 
							CHANNELS 3 Zrotation Yrotation Xrotation
							End Site
							{
								OFFSET 4.083176 0.000000 0.000000 
							}
						}
					}
				}
			}
			JOINT rCollar
			{
				OFFSET -3.470700 6.669187 -0.816635 
				CHANNELS 3 Yrotation Zrotation Xrotation
				JOINT rShldr
				{
					OFFSET -3.198488 0.000000 0.000000 
					CHANNELS 3 Zrotation Yrotation Xrotation
					JOINT rForeArm
					{
						OFFSET -10.139888 0.000000 0.000000 
						CHANNELS 3 Yrotation Zrotation Xrotation
						JOINT rHand
						{
							OFFSET -8.370511 0.000000 0.000000 
							CHANNELS 3 Zrotation Yrotation Xrotation
							End Site
							{
								OFFSET -4.083176 0.000000 0.000000 
							}
						}
					}
				}
			}
		}
	}
	JOINT lThigh
	{
		OFFSET 5.308129 -1.633274 1.361059 
		CHANNELS 3 Xrotation Zrotation Yrotation
		JOINT lShin
		{
			OFFSET -2.041588 -20.007561 0.000000 
			CHANNELS 3 Xrotation Zrotation Yrotation
			JOINT lFoot
			{
				OFFSET 0.000000 -19.190928 -1.224953 
				CHANNELS 3 Xrotation Yrotation Zrotation
				End Site
				{
					OFFSET 0.000000 -2.449906 4.627600 
				}
			}
		}
	}
	JOINT rThigh
	{
		OFFSET -5.308129 -1.633274 1.361059 
		CHANNELS 3 Xrotation Zrotation Yrotation
		JOINT rShin
		{
			OFFSET 2.041588 -20.007561 0.000000 
			CHANNELS 3 Xrotation Zrotation Yrotation
			JOINT rFoot
			{
				OFFSET 0.000000 -19.190928 -1.224953 
				CHANNELS 3 Xrotation Yrotation Zrotation
				End Site
				{
					OFFSET 0.000000 -2.449906 4.627600 
				}
			}
		}
	}
}
MOTION
Frames: 8
Frame Time: 0.016667
11.815202 52.761913 28.833782 0.136823 2.236322 166.910019 -3.512303 6.573155 0.659204 3.832375 4.476445 0.660928 2.451222 -0.125324 -0.187657 20.531126 5.819752 0.270619 -0.966184 -2.090659 -0.113862 -18.366291 -49.852142 -43.393600 -30.361578 -0.306311 24.919348 1.600404 -3.416339 22.698214 0.956406 2.080914 -0.113715 57.152721 51.513062 -4.879798 28.515955 1.097797 -0.841942 -1.599561 3.337297 27.347231 -23.583214 8.192803 -0.332447 26.243656 5.671686 3.373389 -14.115739 -2.060114 -2.895378 -0.907570 6.081189 4.875795 24.644316 -7.309269 -2.826295 -16.364750 -2.468257 3.573231 
11.695624 52.633442 28.024706 -0.117321 2.734369 165.521759 -3.415626 6.659364 0.841236 3.906623 4.327288 0.770340 2.656399 -0.567777 0.088618 20.664230 5.616258 0.368760 -0.966184 -2.090659 -0.113862 -18.655022 -49.849762 -43.227085 -30.212593 -0.297105 24.915512 1.600339 -3.416312 22.834929 0.956406 2.080914 -0.113715 57.526421 50.964252 -4.274780 29.004065 1.090231 -0.837221 -1.599357 3.337192 27.122622 -23.861908 9.148061 -0.017418 24.739960 5.744384 3.224448 -13.736317 -0.069111 -2.312544 0.106621 6.469192 5.642323 23.876282 -7.374571 -2.749819 -16.828863 -2.386273 3.525391 
11.549091 52.563263 27.185482 -0.547494 2.724485 164.876343 -3.364754 6.552030 0.687290 4.187026 4.191160 0.704953 2.295036 -0.355250 0.216035 20.538494 5.704889 0.462324 -0.966184 -2.090659 -0.113862 -18.427008 -49.650093 -42.999950 -30.087742 -0.304967 24.920681 1.604305 -3.407382 22.297239 0.956406 2.080914 -0.113715 58.133347 51.021000 -4.370368 28.740486 1.094311 -0.839778 -1.599880 3.337463 27.698792 -24.237955 9.429392 -0.364468 22.877342 5.734169 3.082640 -12.547576 1.251679 -1.911569 0.575154 6.195143 5.461420 23.398598 -7.423458 -2.708312 -17.049898 -2.247466 3.545857 
11.444938 52.450809 26.382757 -0.928908 2.880481 163.342041 -3.317641 6.438711 1.124484 4.153795 4.045213 0.903141 2.548932 -0.265913 0.227885 20.724924 5.700962 0.490526 -0.966184 -2.090659 -0.113862 -18.671679 -49.763474 -43.228325 -30.192438 -0.302093 24.918306 1.600320 -3.416304 22.873993 0.956406 2.080914 -0.113715 58.471310 50.926525 -4.883730 28.428097 1.099163 -0.842785 -1.596134 3.346539 28.763245 -24.480492 10.145452 -0.371011 21.535042 5.753216 2.953123 -11.929914 3.894732 -1.289926 0.966551 6.199578 6.557579 23.313927 -7.560922 -2.692628 -17.569069 -2.191509 3.650497 
11.303224 52.312801 25.504086 -1.310781 3.309683 162.277954 -3.297377 6.566112 0.916355 4.191058 3.970856 0.820460 2.559045 -0.166001 0.567981 20.747028 5.815110 0.663488 -0.966184 -2.090659 -0.113862 -19.212147 -48.850037 -43.151726 -30.372910 -0.305635 24.911427 1.600353 -3.416318 22.805634 0.956406 2.080914 -0.113715 58.878223 50.816334 -3.177240 28.750250 1.094160 -0.839684 -1.599863 3.337454 27.679262 -24.534182 10.953926 -0.732482 20.288670 5.808801 2.839291 -11.835868 5.435240 -0.920204 1.454782 6.414744 7.212352 23.335794 -7.747023 -2.669737 -18.087900 -2.116250 3.767525 
11.182999 52.183510 24.617523 -1.359481 3.153411 161.194839 -3.179415 6.369683 1.116984 4.396093 3.947311 0.906001 1.631544 -1.016877 0.538110 20.316452 5.403372 0.562362 -0.966184 -2.090659 -0.113862 -19.251488 -48.791187 -42.761948 -30.221453 -0.301210 24.915745 1.600422 -3.416347 22.659151 0.956406 2.080914 -0.113715 58.988655 50.400036 -3.107054 28.916210 1.091590 -0.838076 -1.599880 3.337463 27.698792 -24.364359 11.132284 -0.900959 18.951424 5.799179 2.713533 -11.392187 7.204907 -0.513246 2.028783 5.893591 7.776630 23.482515 -7.991272 -2.662325 -18.656818 -1.574705 4.044096 
11.035736 52.044678 23.747566 -1.799984 3.367482 160.372940 -3.219347 6.402081 1.165977 4.356714 3.939148 0.929226 1.768167 -0.570251 0.597387 20.429167 5.640227 0.632044 -0.966184 -2.090659 -0.113862 -19.706894 -48.493774 -42.495880 -30.314877 -0.307420 24.916487 1.600380 -3.416329 22.747040 0.956406 2.080914 -0.113715 59.012787 50.236061 -3.273564 28.945496 1.091136 -0.837791 -1.600013 3.337533 27.845276 -24.582039 11.734533 -1.207126 17.939871 5.810629 2.615161 -10.972880 8.123105 -0.345779 2.431701 5.966269 7.775587 23.378979 -8.235199 -2.647609 -18.753807 -1.867148 3.974602 
10.866703 51.878998 22.821089 -2.044384 3.288925 159.550827 -3.218892 6.246799 1.239319 4.403332 3.846345 0.956618 2.100304 -0.361792 0.687633 20.627615 5.741242 0.703770 -0.966184 -2.090659 -0.113862 -19.949596 -48.146828 -42.164108 -30.381744 -0.301315 24.916595 1.600477 -3.416370 22.541964 0.956406 2.080914 -0.113715 58.932697 50.037502 -3.395789 29.023588 1.089929 -0.837031 -1.599685 3.337361 27.483948 -24.333363 11.824868 -1.953742 16.989426 5.779830 2.539908 -11.209410 9.595216 0.003509 2.771929 5.632477 7.174566 23.408421 -8.477864 -2.636346 -18.899771 -1.949246 3.937412 
